<svg width="188" height="40" viewBox="0 0 188 40" fill="none" xmlns="http://www.w3.org/2000/svg">
<path d="M26.9834 3.33333H13.0167C6.95004 3.33333 3.33337 6.95 3.33337 13.0167V26.9667C3.33337 33.05 6.95004 36.6667 13.0167 36.6667H26.9667C33.0334 36.6667 36.65 33.05 36.65 26.9833V13.0167C36.6667 6.95 33.05 3.33333 26.9834 3.33333ZM19.1667 28.75C19.1667 29.35 18.5667 29.75 18.0167 29.5167C16 28.65 13.3667 27.85 11.5334 27.6167L11.2167 27.5833C10.2 27.45 9.36671 26.5 9.36671 25.4667V12.6333C9.36671 11.35 10.4 10.4 11.6667 10.5C13.75 10.6667 16.8334 11.6667 18.7667 12.7667C19.0334 12.9167 19.1667 13.2 19.1667 13.4833V28.75ZM30.6334 25.45C30.6334 26.4833 29.8 27.4333 28.7834 27.5667L28.4334 27.6C26.6167 27.85 24 28.6333 21.9834 29.4833C21.4334 29.7167 20.8334 29.3167 20.8334 28.7167V13.4667C20.8334 13.1667 20.9834 12.8833 21.25 12.7333C23.1834 11.65 26.2 10.6833 28.25 10.5H28.3167C29.6 10.5 30.6334 11.5333 30.6334 12.8167V25.45Z" fill="#546FFF"/>
<path d="M54.464 33V9.16H62.272C64.7467 9.16 66.8907 9.66133 68.704 10.664C70.5387 11.6453 71.9573 13.032 72.96 14.824C73.9627 16.616 74.464 18.696 74.464 21.064C74.464 23.4107 73.9627 25.4907 72.96 27.304C71.9573 29.096 70.5387 30.4933 68.704 31.496C66.8907 32.4987 64.7467 33 62.272 33H54.464ZM58.24 29.64H62.336C64.0213 29.64 65.4827 29.288 66.72 28.584C67.9787 27.88 68.9493 26.888 69.632 25.608C70.3147 24.328 70.656 22.8133 70.656 21.064C70.656 19.3147 70.304 17.8107 69.6 16.552C68.9173 15.272 67.9573 14.28 66.72 13.576C65.4827 12.872 64.0213 12.52 62.336 12.52H58.24V29.64ZM77.2228 33V9.16H80.2628L93.6388 27.624L92.1988 27.848V9.16H95.9428V33H92.9028L79.6228 14.408L80.9988 14.152V33H77.2228ZM97.807 33L105.583 20.936L97.935 9.16H102.223L108.623 19.016H106.799L113.135 9.16H117.423L109.807 20.936L117.583 33H113.295L106.799 22.888L108.623 22.92L102.063 33H97.807Z" fill="#141522"/>
</svg>
