<?xml version="1.0" standalone="no"?>
<!DOCTYPE svg PUBLIC "-//W3C//DTD SVG 20010904//EN"
 "http://www.w3.org/TR/2001/REC-SVG-20010904/DTD/svg10.dtd">
<svg version="1.0" xmlns="http://www.w3.org/2000/svg"
 width="700.000000pt" height="700.000000pt" viewBox="0 0 700.000000 700.000000"
 preserveAspectRatio="xMidYMid meet">
<metadata>
Created by potrace 1.14, written by Peter Selinger 2001-2017
</metadata>
<g transform="translate(0.000000,700.000000) scale(0.100000,-0.100000)"
fill="#000000" stroke="none">
<path d="M3220 6994 c-182 -20 -243 -29 -360 -50 -786 -142 -1524 -572 -2041
-1189 -436 -522 -692 -1103 -796 -1810 -25 -173 -25 -717 0 -890 70 -477 202
-877 416 -1258 281 -503 667 -917 1146 -1229 449 -293 903 -461 1470 -545 152
-22 705 -26 855 -5 823 113 1504 445 2065 1007 493 492 830 1119 959 1783 55
283 61 346 61 692 0 346 -6 409 -61 692 -148 762 -575 1482 -1179 1989 -517
433 -1119 699 -1800 795 -114 15 -640 29 -735 18z m2310 -3479 l0 -1055 -195
0 -195 0 0 485 c0 267 -3 485 -7 485 -5 -1 -156 -212 -337 -470 -323 -461
-329 -468 -346 -447 -9 12 -146 202 -305 422 -158 220 -296 409 -306 420 -19
19 -19 8 -19 -438 l0 -457 -190 0 -190 0 0 1052 c0 885 2 1050 14 1038 7 -8
232 -327 501 -708 268 -381 494 -701 504 -713 15 -19 34 5 541 710 289 402
526 730 528 731 1 0 2 -475 2 -1055z m-3580 506 c129 -258 237 -468 240 -466
3 2 106 213 230 469 l225 466 243 0 243 0 -12 -22 c-7 -13 -178 -328 -381
-700 l-368 -677 0 -316 0 -315 -195 0 -195 0 0 316 0 315 -356 667 c-196 367
-365 682 -375 700 l-18 32 242 0 242 0 235 -469z"/>
</g>
</svg>
